<?xml version="1.0" standalone="no"?><!DOCTYPE svg PUBLIC "-//W3C//DTD SVG 1.1//EN" "http://www.w3.org/Graphics/SVG/1.1/DTD/svg11.dtd"><svg t="1713675532151" class="icon" viewBox="0 0 1331 1024" version="1.1" xmlns="http://www.w3.org/2000/svg" p-id="1731" width="166.375" height="128" xmlns:xlink="http://www.w3.org/1999/xlink"><path d="M668.672 329.728c5.632 3.584 12.8-1.024 11.264-7.68-7.68-33.28-30.208-104.96-58.88-151.04-6.656-11.264-0.512-26.112 12.8-27.648 29.184-4.096 80.384-4.608 132.608 8.192 257.024 63.488 309.76 231.424 311.296 290.816 0 4.096 0 9.728-1.024 14.848-2.56 23.552-20.992 42.496-44.544 46.08-59.392 7.68-139.264-8.192-139.776-8.192-26.112-1.024-10.24 30.208 1.024 30.208 2.048 0 129.024 22.016 112.64 33.28-13.312 8.704-27.648 15.872-42.496 22.016-10.24 4.096-21.504 7.68-32.768 10.24-8.704 2.048-17.408 4.096-26.112 5.12-19.968 2.56-39.936 4.608-59.904 3.072-20.992-1.536-41.472-4.096-61.952-9.728-7.68-2.048-15.872-4.608-23.552-7.68-4.096-1.536-8.704-2.56-12.8-3.072-17.92-2.56-35.84-5.12-53.76-7.168-3.072-0.512-6.144-0.512-9.216-0.512-1.536 0-1.536 0.512-1.024 2.56 1.024 8.192 0.512 16.896 0.512 25.088 0 5.632-0.512 10.752-1.536 16.384-1.024 5.12-3.584 10.24-7.168 14.336-5.632 6.656-12.8 8.192-20.992 6.656-7.168-1.536-13.824-5.12-19.456-10.24-13.312-11.776-19.456-29.184-27.136-45.056-1.536-3.584-3.072-7.68-4.608-11.776-1.024-2.56-2.56-4.096-5.632-4.096h-63.488c-14.336 0.512-28.672 1.024-43.52 2.56-7.68 0.512-15.872 1.024-23.552 1.536-10.752 1.024-22.016 2.048-33.28 4.096-8.192 1.024-16.384 2.048-24.064 3.584h-1.536c-1.536 0.512-2.048 1.024-1.024 3.072 1.024 2.56 2.56 5.632 4.096 8.192 2.56 5.12 4.608 11.264 4.608 17.408 0.512 12.8-5.632 23.552-17.92 28.16-14.336 5.12-27.648 2.56-40.448-4.096-9.728-5.12-18.432-12.8-26.624-20.48-3.072-2.56-6.144-5.12-8.704-8.704-1.536-2.048-3.584-2.048-6.144-1.536-12.288 4.096-25.088 8.704-36.864 13.824-13.312 5.632-125.44 56.32-64 156.16 3.072 5.12 9.216 12.288 13.312 16.896 13.312 13.824 28.672 24.576 46.08 32.768 17.92 8.192 37.376 13.824 58.88 13.824 7.168 0 14.336-0.512 20.992-2.56 19.968-5.12 35.328-15.872 44.544-34.304 6.144-12.8 8.192-26.112 6.144-39.936-2.048-15.872-7.68-31.232-15.872-45.056-2.048-3.072-3.072-7.168-4.096-10.752-1.024-4.096 0-10.24 3.072-13.824 3.584-3.584 7.168-3.584 10.24-1.536 5.12 3.584 10.752 6.656 15.36 11.264 9.728 8.704 18.432 18.432 24.576 30.208 6.144 11.264 10.24 23.552 12.288 36.352 22.016 121.344-128.512 121.344-156.16 121.344-422.4 0-329.216-578.56-45.568-636.416 99.328-26.112 230.912-20.48 420.864 82.944z m342.528 66.56c0-5.632 0-11.264-1.536-17.408-3.584-14.336-9.728-27.136-22.016-36.352-16.896-13.824-35.84-14.848-55.808-6.144-7.68 3.072-14.336 8.192-19.968 14.848-5.632 6.656-10.752 13.824-13.824 22.016-5.632 13.312-7.168 27.648-5.12 41.984 2.048 17.92 9.216 33.28 23.552 44.544 12.8 10.24 27.648 13.312 43.52 9.728 17.408-4.096 30.72-14.848 39.936-30.208 7.168-13.312 11.264-27.136 11.264-43.008zM1117.184 847.36c-2.56 3.072-4.608-1.536-6.144-5.12-1.024-2.048-2.048-4.608-3.072-6.656-0.512-2.048-1.536-2.56-3.584-1.536-1.024 0.512-2.56 1.024-4.096 2.048-8.704 4.608-16.384 15.872-28.672 8.704-4.608 0.512 43.008-173.568 27.136-188.416-17.92-2.56-28.672 183.296-28.672 184.32 0 5.12-11.264 3.072-15.872 1.024-5.12-2.048-9.728-5.632-14.336-9.728-13.824-13.312-20.48-30.208-24.576-48.128-3.072-14.848-3.584-30.208-2.56-45.568 1.024-15.872 4.096-31.744 8.704-46.592 4.608-15.36 10.752-30.208 18.944-44.544 7.168-12.288 15.36-24.064 25.6-33.792 9.216-8.704 19.456-16.384 32.256-20.992 6.144-2.048 12.288-3.584 19.456-3.584 5.632 0 9.216 2.048 12.288 6.656s5.632 9.216 8.192 13.824c11.776 22.528 20.48 46.08 24.576 71.168 1.024 7.168 2.048 14.336 2.56 21.504v1.536c0 2.56 1.024 2.56 3.072 1.536 2.56-1.536 5.632-3.584 8.704-5.632 17.408-11.264 36.352-19.456 56.832-24.576 9.216-2.048 18.432-3.584 28.16-3.584 15.872 0 31.232 2.048 45.568 9.728 4.608 2.56 8.192 5.632 12.288 8.704 3.584 3.072 5.12 7.168 5.12 11.776-0.512 12.8-2.56 25.088-5.12 37.888-2.56 12.288-6.656 24.064-11.264 35.328-2.56 6.656-5.632 13.312-9.216 19.968-9.216 16.896-20.48 32.768-34.816 46.08-15.36 14.336-33.28 25.6-54.272 31.232-8.704 2.56-17.92 4.096-27.136 3.584-15.36 0-30.72-3.072-45.056-9.728-5.12-2.56-10.24-5.632-15.36-8.704-1.536-1.024-2.56-2.048-4.096-3.072-1.024-1.024-3.584-4.608-2.048-5.632 30.208-16.384 117.76-80.384 141.824-111.104 31.232-41.472-118.784 69.12-141.824 111.104l0.512-1.024z" p-id="1732" fill="#1296db"></path><path d="M971.776 394.752c0 10.24-4.096 18.432-11.264 25.088-7.68 7.168-19.968 7.68-28.672 2.048-5.632-3.584-8.192-9.216-9.216-15.36-2.048-11.264 1.024-20.992 8.704-29.184 8.192-8.704 21.504-10.752 31.232-4.096 6.144 4.096 9.728 10.752 10.24 18.432-0.512 1.024-0.512 2.048-1.024 3.072z" p-id="1733" fill="#1296db"></path></svg>